<?xml version="1.0" encoding="UTF-8"?><!DOCTYPE svg PUBLIC "-//W3C//DTD SVG 1.1 Tiny//EN" "http://www.w3.org/Graphics/SVG/1.1/DTD/svg11-tiny.dtd"><svg baseProfile="tiny" xmlns="http://www.w3.org/2000/svg" width="573" height="45" preserveAspectRatio="xMaxYMax meet" viewBox="0 0 573 45"><g id="add" transform="translate(0,0)"><title>add</title><g fill="none"><path d="M22 9c-7.179 0-13 5.821-13 13s5.821 13 13 13 13-5.821 13-13-5.821-13-13-13z" fill="#95D54E"/><path d="M29.111 22.889h-6.222v6.222c0 .491-.398.889-.889.889s-.889-.398-.889-.889v-6.222h-6.222c-.491 0-.889-.398-.889-.889s.398-.889.889-.889h6.222v-6.222c0-.491.398-.889.889-.889s.889.398.889.889v6.222h6.222c.491 0 .889.398.889.889s-.398.889-.889.889z" fill="#fff"/></g></g><g id="area-snap" transform="translate(44,0)"><title>area-snap</title><desc>Created with Sketch Beta.</desc><path d="M2 2h18v16h-18z" stroke="#4A4A4A" stroke-dasharray="2" fill="none"/></g><g id="arrow" transform="translate(66,0)"><title>arrow</title><path d="M16.651 25.479l11.505-11.505c.648-.648 1.621-.721 2.175-.167.554.554.48 1.527-.167 2.175l-11.505 11.505 4.239.033c.74.006 1.342.608 1.348 1.348.006.74-.588 1.333-1.327 1.327l-8.907-.069-.069-8.907c-.006-.74.588-1.333 1.327-1.327.74.006 1.342.608 1.348 1.348l.033 4.239z" fill="#fff"/></g><g id="circle" transform="translate(110,0)"><title>circle</title><rect x="21" y="11" width="22" height="22" rx="12" transform="translate(-10 -332) translate(0 332)" stroke="#fff" stroke-width="2" fill="none"/></g><g id="crop" transform="translate(154,0)"><title>crop</title><path d="M14.986 13.024h3.014l.053 12.976h13.984v3.012h-17.051v-15.988zm4.014 1.96h10.992v9.997h-3.041v-6.981h-7.951v-3.016zm-7 .046h2v3.011h-2v-3.011zm15 14.945h2.963v2.019h-2.963v-2.019z" fill="#fff"/></g><g id="cursor" transform="translate(198,0)"><title>cursor</title><path d="M16.512 13.463l10.436 9.828-4.374.753 3.011 5.581-1.967.899-3.12-5.488-3.986 2.586v-14.159z" fill="#fff"/></g><g id="export" transform="translate(242,0)"><title>Slice 1</title><desc>Created with Sketch Beta.</desc><path d="M23.306 17.942c0 .639.348 1.229.913 1.549.565.319 1.261.319 1.826 0 .565-.319.913-.91.913-1.549 0-.639-.348-1.229-.913-1.549-.565-.319-1.261-.319-1.826 0-.565.319-.913.91-.913 1.549zm5.757 10.486h1.313v-7.714l-5.25 3.857-6.563-5.143-3.938 3.857v5.143h14.438zm2.625-15.429h-18.375c-.725 0-1.313.576-1.313 1.286v15.429c0 .71.588 1.286 1.313 1.286h18.375c.724 0 1.313-.576 1.313-1.286v-15.429c0-.71-.588-1.286-1.313-1.286zm0 16.714h-18.375v-15.429h18.375v15.429z" fill="#fff"/></g><g id="line" transform="translate(286,0)"><title>line</title><path d="M12.832 30.106l17.546-17.546 1.607 1.607-17.546 17.546z" fill="#E6E9ED"/></g><g id="pencil" transform="translate(331,0)"><title>pencil</title><path d="M15.633 25.522c.179-.07.792.854 1.68 1.76.88.898 1.668 1.538 1.668 1.739 0 .405-5.335 1.915-5.335 1.915s1.629-5.276 1.986-5.415zm.86-1.009s.835 1.447 1.427 2.039c.567.567 2.049 1.437 2.049 1.437l10.558-11.589s-.421-1.62-.971-2.049c-.47-.366-2.086-.336-2.086-.336l-10.977 10.497z" fill="#fff"/></g><g id="rect" transform="translate(375,0)"><title>square</title><rect x="21" y="11" width="22" height="22" rx="3" transform="translate(-10 -288) translate(0 288)" stroke="#fff" stroke-width="2" fill="none"/></g><g id="settings" transform="translate(419,0)"><title>settings</title><path d="M15 14v-3c0-.552-.448-1-1-1s-1 .448-1 1v3c-1.104 0-2 .896-2 2v2c0 1.104.896 2 2 2v13c0 .552.448 1 1 1s1-.448 1-1v-13c1.104 0 2-.896 2-2v-2c0-1.104-.896-2-2-2zm-2 2h2v2h-2v-2zm10 8v-13c0-.552-.448-1-1-1s-1 .448-1 1v13c-1.104 0-2 .896-2 2v2c0 1.104.896 2 2 2v3c0 .552.448 1 1 1s1-.448 1-1v-3c1.104 0 2-.896 2-2v-2c0-1.104-.896-2-2-2zm-2 2h2v2h-2v-2zm10-8v-7c0-.552-.448-1-1-1s-1 .448-1 1v7c-1.104 0-2 .896-2 2v2c0 1.104.896 2 2 2v9c0 .552.448 1 1 1s1-.448 1-1v-9c1.104 0 2-.896 2-2v-2c0-1.104-.896-2-2-2zm-2 2h2v2h-2v-2z" fill="#fff"/></g><g id="text" transform="translate(463,0)"><title>text</title><path d="M12.919 13h18.023v4.976h-1.484c-.323-1.452-1.525-2.984-1.525-2.984h-4.005v13.06c0 .422.281.387.45.463.253.113 3.027 1.019 3.027 1.019v1.467h-10.961v-1.467c1.797-.567 2.706-.911 3.013-1.019.306-.108.502-.263.502-.463v-13.06h-3.997s-1.228 1.523-1.506 2.984h-1.537v-4.976z" fill="#fff"/></g><g id="undo" transform="translate(507,0)"><title>undo</title><path d="M12.191 21.817l3.923 3.75c.255.244.67.244.925 0s.255-.64 0-.884l-2.806-2.684h9.537c2.615 0 3.923 2.308 3.923 4.375 0 .345.293.625.654.625.361 0 .654-.28.654-.625 0-2.758-1.308-5.625-5.231-5.625h-9.537l2.806-2.682c.255-.244.255-.64 0-.884s-.67-.244-.925 0l-3.923 3.75c-.255.244-.255.639 0 .884z" stroke="#fff" fill="#fff"/></g><g id="window-snap" transform="translate(551,0)"><title>window-snap</title><desc>Created with Sketch Beta.</desc><path d="M3 17h16v-12h-16v12zm5.75-14.143c-.466 0-.844.383-.844.857s.378.857.844.857c.466 0 .844-.383.844-.857s-.378-.857-.844-.857zm-2.531 0c-.466 0-.844.383-.844.857s.378.857.844.857c.466 0 .843-.383.843-.857s-.378-.857-.843-.857zm-2.532 0c-.466 0-.844.383-.844.857s.378.857.844.857c.466 0 .844-.383.844-.857s-.378-.857-.844-.857zm-.687 15.143c-.466 0-1-.526-1-1v-14.143c0-.474.378-.857.843-.857h16.313c.466 0 .843.383.843.857v14.143c0 1-.857 1-1 1h-16z" fill="#4A4A4A"/></g></svg>