<?xml version="1.0" encoding="utf-8"?>
<!-- Generator: Adobe Illustrator 17.0.0, SVG Export Plug-In . SVG Version: 6.00 Build 0)  -->
<!DOCTYPE svg PUBLIC "-//W3C//DTD SVG 1.1//EN" "http://www.w3.org/Graphics/SVG/1.1/DTD/svg11.dtd">
<svg version="1.1" id="Layer_1" xmlns="http://www.w3.org/2000/svg" xmlns:xlink="http://www.w3.org/1999/xlink" x="0px" y="0px"
	 width="132px" height="659px" viewBox="0 0 132 659" enable-background="new 0 0 132 659" xml:space="preserve">
<path opacity="0.7" fill-rule="evenodd" clip-rule="evenodd" fill="#FFFFFF" d="M49.842,38.5h26c1.657,0,3,1.343,3,3v18
	c0,1.657-1.343,3-3,3h-26c-1.657,0-3-1.343-3-3v-18C46.842,39.843,48.185,38.5,49.842,38.5z M63.842,53.825V54.5h-2v-0.675
	l-12.997-12.05l1.272-1.272l12.725,11.798l12.725-11.798l1.272,1.272L63.842,53.825z M57.832,52.242l-8.249,8.249l-0.732-0.732
	L57.1,51.51L57.832,52.242z M76.832,59.758L76.1,60.491l-8.249-8.249l0.732-0.732L76.832,59.758z"/>
<path opacity="0.7" fill-rule="evenodd" clip-rule="evenodd" fill="#FFFFFF" d="M75.832,588.616
	c2.157,1.607,4.004,3.077,4.004,3.077l-2.63,4.615l-4.755-2.099l-4.406,2.577c-0.298,2.716-0.572,5.214-0.572,5.214h-5.261
	l-0.584-5.232l-4.342-2.583l-4.807,2.122l-2.63-4.615c0,0,1.818-1.463,3.968-3.065v-5.26l-3.968-3.06l2.63-4.615l4.693,2.088
	l4.657-2.527L62.211,570h5.261l0.382,5.233l4.593,2.577l4.759-2.118l2.63,4.615l-4.004,3.071V588.616z M64.842,582
	c-2.209,0-4,1.791-4,4s1.791,4,4,4c2.209,0,4-1.791,4-4S67.051,582,64.842,582z"/>
<g opacity="0.7">
	<path fill-rule="evenodd" clip-rule="evenodd" fill="#FFFFFF" d="M79.01,159.092l-0.314,0.314l-5.725-5.729l0.314-0.314
		c0,0,1.371-1.814,3.32-1.814c0.859,0,1.832,0.353,2.848,1.37C82.806,156.275,79.01,159.092,79.01,159.092z M76.817,161.286
		l-19.49,19.507l0.001,0l-0.003,0.001h-0.001l-8.478,2.757l2.755-8.486H51.6l0.001-0.001l0-0.003h0.002l19.489-19.505l0.253,0.254
		 M51.606,180.79l4.235-1.218l-2.893-3.083L51.606,180.79z"/>
</g>
<path opacity="0.7" fill-rule="evenodd" clip-rule="evenodd" fill="#FFFFFF" d="M65.36,545.527c0,0-9.938-14.062-9.938-20.062
	c0-11.812,9.938-11.938,9.938-11.938s10.062,0.125,10.062,11.875C75.422,531.59,65.36,545.527,65.36,545.527z M65.422,519.527
	c-2.209,0-4,1.791-4,4s1.791,4,4,4c2.209,0,4-1.791,4-4S67.632,519.527,65.422,519.527z"/>
<g opacity="0.7">
	<path fill="#FFFFFF" d="M64.879,447.332c0,0-10.037,11.922-10.037,22.023c0,10.102,9.963,9.977,9.963,9.977
		s10.037-0.126,10.037-10.039S64.879,447.332,64.879,447.332z M64.842,475.332c-3.314,0-6-2.686-6-6
		c0-2.121,1.114-3.963,2.777-5.026c-0.477,0.637-0.777,1.531-0.777,2.526c0,0.207,0.019,0.407,0.044,0.605
		c-0.01,0.133-0.044,1.638-0.044,1.895c0,2.209,1.791,4,4,4c0.257,0,0.507-0.029,0.75-0.076c0.248,0.034,0.493,0.076,0.75,0.076
		c0.136,0,0.262-0.034,0.395-0.044c0.198,0.025,0.398,0.044,0.605,0.044c0.996,0,1.889-0.3,2.526-0.777
		C68.804,474.218,66.963,475.332,64.842,475.332z"/>
</g>
<g opacity="0.7">
	<path fill-rule="evenodd" clip-rule="evenodd" fill="#FFFFFF" d="M66.826,99.394v8.063h8v-3.999l6.015,6.015l-6.015,6.015v-4.093
		h-8v8.063h4.031l-6.015,6.015l-6.015-6.015h4v-8.063h-8v4.062l-5.984-5.984l5.984-5.984v3.968h8v-8.063H58.92l5.921-5.921
		l5.921,5.921H66.826z"/>
</g>
<g opacity="0.7">
	<path fill="#FFFFFF" d="M74.342,388.808c1.105,0,2,0.895,2,2v19c0,1.105-0.895,2-2,2h-19c-1.105,0-2-0.895-2-2v-19
		c0-1.105,0.895-2,2-2H74.342 M74.342,384.808h-19c-3.308,0-6,2.692-6,6v19c0,3.308,2.692,6,6,6h19c3.308,0,6-2.692,6-6v-19
		C80.342,387.499,77.65,384.808,74.342,384.808L74.342,384.808z"/>
</g>
<g opacity="0.7">
	<path fill-rule="evenodd" clip-rule="evenodd" fill="#FFFFFF" d="M54.839,326.342h2c0.552,0,1,0.448,1,1v22c0,0.552-0.448,1-1,1h-2
		c-0.552,0-1-0.448-1-1v-22C53.839,326.79,54.287,326.342,54.839,326.342z"/>
	<path fill-rule="evenodd" clip-rule="evenodd" fill="#FFFFFF" d="M54.839,346.342h22c0.552,0,1,0.448,1,1v2c0,0.552-0.448,1-1,1
		h-22c-0.552,0-1-0.448-1-1v-2C53.839,346.79,54.287,346.342,54.839,346.342z"/>
	<path fill-rule="evenodd" clip-rule="evenodd" fill="#FFFFFF" d="M70.839,330.342h2c0.552,0,1,0.448,1,1v22c0,0.552-0.448,1-1,1h-2
		c-0.552,0-1-0.448-1-1v-22C69.839,330.79,70.287,330.342,70.839,330.342z"/>
	<path fill-rule="evenodd" clip-rule="evenodd" fill="#FFFFFF" d="M50.839,330.342h22c0.552,0,1,0.448,1,1v2c0,0.552-0.448,1-1,1
		h-22c-0.552,0-1-0.448-1-1v-2C49.839,330.79,50.287,330.342,50.839,330.342z"/>
	<path fill-rule="evenodd" clip-rule="evenodd" fill="#FFFFFF" d="M79.556,324.625c0.383,0.383,0.383,1.005,0,1.388L56.51,349.06
		c-0.383,0.383-1.005,0.383-1.388,0s-0.383-1.005,0-1.388l23.046-23.046C78.552,324.242,79.173,324.242,79.556,324.625z"/>
</g>
<g opacity="0.7">
	<path fill-rule="evenodd" clip-rule="evenodd" fill="#FFFFFF" d="M78.62,266.625l1.414,1.414c0.391,0.391,0.391,1.024,0,1.414
		L52.478,297.01c-0.391,0.391-1.024,0.391-1.414,0l-1.414-1.414c-0.391-0.391-0.391-1.024,0-1.414l27.556-27.556
		C77.596,266.234,78.229,266.234,78.62,266.625z"/>
</g>
<g opacity="0.7">
	<g>
		<path fill-rule="evenodd" clip-rule="evenodd" fill="#FFFFFF" d="M78.2,209.083l1.414,1.414c0.391,0.391,0.391,1.024,0,1.414
			l-25.556,25.556c-0.391,0.391-1.024,0.391-1.414,0l-1.414-1.414c-0.391-0.391-0.391-1.024,0-1.414l25.556-25.556
			C77.177,208.693,77.81,208.693,78.2,209.083z"/>
	</g>
	<g>
		<g>
			<path fill-rule="evenodd" clip-rule="evenodd" fill="#FFFFFF" d="M50.784,221.026h2c0.552,0,1,0.448,1,1v15.896
				c0,0.552-0.448,1-1,1h-2c-0.552,0-1-0.448-1-1v-15.896C49.784,221.474,50.232,221.026,50.784,221.026z"/>
		</g>
		<g>
			<path fill-rule="evenodd" clip-rule="evenodd" fill="#FFFFFF" d="M49.776,237.914v-2c0-0.552,0.448-1,1-1h15.896
				c0.552,0,1,0.448,1,1v2c0,0.552-0.448,1-1,1H50.776C50.223,238.914,49.776,238.467,49.776,237.914z"/>
		</g>
	</g>
</g>
</svg>
