<?xml version="1.0" encoding="UTF-8" standalone="no"?>
<svg width="44px" height="44px" viewBox="0 0 44 44" version="1.1" xmlns="http://www.w3.org/2000/svg" xmlns:xlink="http://www.w3.org/1999/xlink" xmlns:sketch="http://www.bohemiancoding.com/sketch/ns">
    <!-- Generator: Sketch Beta 3.0.2 (7779) - http://www.bohemiancoding.com/sketch -->
    <title>add</title>
    <description>Created with Sketch Beta.</description>
    <defs></defs>
    <g id="Panel" stroke="none" stroke-width="1" fill="none" fill-rule="evenodd" sketch:type="MSPage">
        <g id="[panel]-editor" sketch:type="MSLayerGroup" transform="translate(-10.000000, -3.000000)">
            <g id="[add]" transform="translate(0.000000, -7.000000)" sketch:type="MSShapeGroup">
                <path d="M32,19 C24.8205333,19 19,24.8205333 19,32 C19,39.1794667 24.8205333,45 32,45 C39.1794667,45 45,39.1794667 45,32 C45,24.8205333 39.1794667,19 32,19 L32,19 Z" id="add" fill="#95D54E"></path>
                <path d="M39.1111111,32.8888889 L32.8888889,32.8888889 L32.8888889,39.1111111 C32.8888889,39.6017778 32.4906667,40 32,40 C31.5093333,40 31.1111111,39.6017778 31.1111111,39.1111111 L31.1111111,32.8888889 L24.8888889,32.8888889 C24.3982222,32.8888889 24,32.4906667 24,32 C24,31.5093333 24.3982222,31.1111111 24.8888889,31.1111111 L31.1111111,31.1111111 L31.1111111,24.8888889 C31.1111111,24.3982222 31.5093333,24 32,24 C32.4906667,24 32.8888889,24.3982222 32.8888889,24.8888889 L32.8888889,31.1111111 L39.1111111,31.1111111 C39.6017778,31.1111111 40,31.5093333 40,32 C40,32.4906667 39.6017778,32.8888889 39.1111111,32.8888889 L39.1111111,32.8888889 Z" id="Path-4" fill="#FFFFFF"></path>
            </g>
        </g>
    </g>
</svg>