<?xml version="1.0" encoding="UTF-8" standalone="no"?>
<svg width="44px" height="44px" viewBox="0 0 44 44" version="1.1" xmlns="http://www.w3.org/2000/svg" xmlns:xlink="http://www.w3.org/1999/xlink" xmlns:sketch="http://www.bohemiancoding.com/sketch/ns">
    <!-- Generator: Sketch Beta 3.0.3 (7884) - http://www.bohemiancoding.com/sketch -->
    <title>Slice 1</title>
    <desc>Created with Sketch Beta.</desc>
    <defs></defs>
    <g id="Panel" stroke="none" stroke-width="1" fill="none" fill-rule="evenodd" sketch:type="MSPage">
        <g id="[panel]-editor" sketch:type="MSLayerGroup" transform="translate(-10.000000, -48.000000)" fill="#FFFFFF">
            <g id="[export]" transform="translate(10.000000, 48.000000)" sketch:type="MSShapeGroup">
                <path d="M23.305875,17.9422857 C23.305875,18.5812297 23.653849,19.1716383 24.2187187,19.4911103 C24.7835884,19.8105823 25.4795366,19.8105823 26.0444063,19.4911103 C26.609276,19.1716383 26.95725,18.5812297 26.95725,17.9422857 C26.95725,17.3033417 26.609276,16.7129331 26.0444063,16.3934611 C25.4795366,16.073989 24.7835884,16.073989 24.2187187,16.3934611 C23.653849,16.7129331 23.305875,17.3033417 23.305875,17.9422857 L23.305875,17.9422857 Z M29.0625,28.4285714 L30.375,28.4285714 L30.375,27.1428571 L30.375,24.5714286 L30.375,20.7142857 L25.125,24.5714286 L18.5625,19.4285714 L14.625,23.2857143 L14.625,24.5714286 L14.625,27.1428571 L14.625,28.4285714 L15.9375,28.4285714 L29.0625,28.4285714 Z M31.6875,13 L13.3125,13 C12.588,13 12,13.576 12,14.2857143 L12,29.7142857 C12,30.424 12.588,31 13.3125,31 L31.6875,31 C32.412,31 33,30.424 33,29.7142857 L33,14.2857143 C33,13.576 32.412,13 31.6875,13 L31.6875,13 Z M31.6875,29.7142857 L13.3125,29.7142857 L13.3125,14.2857143 L31.6875,14.2857143 L31.6875,29.7142857 L31.6875,29.7142857 Z" id="Shape"></path>
            </g>
        </g>
    </g>
</svg>