<?xml version="1.0" encoding="UTF-8" standalone="no"?>
<svg width="44px" height="44px" viewBox="0 0 44 44" version="1.1" xmlns="http://www.w3.org/2000/svg" xmlns:xlink="http://www.w3.org/1999/xlink" xmlns:sketch="http://www.bohemiancoding.com/sketch/ns">
    <!-- Generator: Sketch Beta 3.0.2 (7779) - http://www.bohemiancoding.com/sketch -->
    <title>settings</title>
    <description>Created with Sketch Beta.</description>
    <defs></defs>
    <g id="Panel" stroke="none" stroke-width="1" fill="none" fill-rule="evenodd" sketch:type="MSPage">
        <g id="[panel]-editor" sketch:type="MSLayerGroup" transform="translate(-10.000000, -720.000000)" fill="#FFFFFF">
            <g id="[settings]" transform="translate(0.000000, 712.000000)" sketch:type="MSShapeGroup">
                <path d="M25,22 L25,19 C25,18.448 24.552,18 24,18 C23.448,18 23,18.448 23,19 L23,22 C21.896,22 21,22.896 21,24 L21,26 C21,27.104 21.896,28 23,28 L23,41 C23,41.552 23.448,42 24,42 C24.552,42 25,41.552 25,41 L25,28 C26.104,28 27,27.104 27,26 L27,24 C27,22.896 26.104,22 25,22 L25,22 Z M23,24 L25,24 L25,26 L23,26 L23,24 L23,24 Z M33,32 L33,19 C33,18.448 32.552,18 32,18 C31.448,18 31,18.448 31,19 L31,32 C29.896,32 29,32.896 29,34 L29,36 C29,37.104 29.896,38 31,38 L31,41 C31,41.552 31.448,42 32,42 C32.552,42 33,41.552 33,41 L33,38 C34.104,38 35,37.104 35,36 L35,34 C35,32.896 34.104,32 33,32 L33,32 Z M31,34 L33,34 L33,36 L31,36 L31,34 L31,34 Z M41,26 L41,19 C41,18.448 40.552,18 40,18 C39.448,18 39,18.448 39,19 L39,26 C37.896,26 37,26.896 37,28 L37,30 C37,31.104 37.896,32 39,32 L39,41 C39,41.552 39.448,42 40,42 C40.552,42 41,41.552 41,41 L41,32 C42.104,32 43,31.104 43,30 L43,28 C43,26.896 42.104,26 41,26 L41,26 Z M39,28 L41,28 L41,30 L39,30 L39,28 L39,28 Z" id="settings"></path>
            </g>
        </g>
    </g>
</svg>