<?xml version="1.0" encoding="UTF-8" standalone="no"?>
<svg width="44px" height="44px" viewBox="0 0 44 44" version="1.1" xmlns="http://www.w3.org/2000/svg" xmlns:xlink="http://www.w3.org/1999/xlink" xmlns:sketch="http://www.bohemiancoding.com/sketch/ns">
    <!-- Generator: Sketch Beta 3.0.2 (7779) - http://www.bohemiancoding.com/sketch -->
    <title>undo</title>
    <description>Created with Sketch Beta.</description>
    <defs></defs>
    <g id="Panel" stroke="none" stroke-width="1" fill="none" fill-rule="evenodd" sketch:type="MSPage">
        <g id="[panel]-editor" sketch:type="MSLayerGroup" transform="translate(-10.000000, -68.000000)" stroke="#FFFFFF" fill="#FFFFFF">
            <g id="[undo]" transform="translate(0.000000, -7.000000)" sketch:type="MSShapeGroup">
                <path d="M22.19125,96.8165625 L26.1143269,100.566563 C26.3693269,100.810312 26.7838654,100.810312 27.0388654,100.566563 C27.2938654,100.322812 27.2938654,99.9265625 27.0388654,99.6828125 L24.2325577,96.9990625 L33.7695577,96.9990625 C36.3849423,96.9990625 37.6926346,99.3065625 37.6926346,101.374063 C37.6926346,101.719063 37.9855577,101.999063 38.3464808,101.999063 C38.7074038,101.999063 39.0003269,101.719063 39.0003269,101.374063 C39.0003269,98.6165625 37.6926346,95.7490625 33.7695577,95.7490625 L24.2325577,95.7490625 L27.0388654,93.0665625 C27.2938654,92.8228125 27.2938654,92.4265625 27.0388654,92.1828125 C26.7838654,91.9390625 26.3693269,91.9390625 26.1143269,92.1828125 L22.19125,95.9328125 C21.93625,96.1765625 21.93625,96.5715625 22.19125,96.8165625 L22.19125,96.8165625 Z" id="Shape"></path>
            </g>
        </g>
    </g>
</svg>