<?xml version="1.0" encoding="UTF-8" standalone="no"?>
<svg width="22px" height="20px" viewBox="0 0 22 20" version="1.1" xmlns="http://www.w3.org/2000/svg" xmlns:xlink="http://www.w3.org/1999/xlink" xmlns:sketch="http://www.bohemiancoding.com/sketch/ns">
    <!-- Generator: Sketch Beta 3.0.4 (7897) - http://www.bohemiancoding.com/sketch -->
    <title>window-snap</title>
    <desc>Created with Sketch Beta.</desc>
    <defs></defs>
    <g id="Panel" stroke="none" stroke-width="1" fill="none" fill-rule="evenodd" sketch:type="MSPage">
        <g id="[panel]-snap" sketch:type="MSLayerGroup" transform="translate(-7.000000, -50.000000)" fill="#4A4A4A">
            <g id="[snap]-window" transform="translate(9.000000, 50.000000)" sketch:type="MSShapeGroup">
                <g id="[icon]-window" transform="translate(0.000000, 2.000000)">
                    <path d="M1,15 L17,15 L17,3 L1,3 L1,15 Z M6.74982422,0.857142857 C6.28406694,0.857142857 5.90606103,1.24 5.90606103,1.71428571 C5.90606103,2.18857143 6.28406694,2.57142857 6.74982422,2.57142857 C7.21586275,2.57142857 7.5935874,2.18857143 7.5935874,1.71428571 C7.5935874,1.24 7.21586275,0.857142857 6.74982422,0.857142857 L6.74982422,0.857142857 Z M4.21881592,0.857142857 C3.75277739,0.857142857 3.37477148,1.24 3.37477148,1.71428571 C3.37477148,2.18857143 3.75277739,2.57142857 4.21881592,2.57142857 C4.6845732,2.57142857 5.06229785,2.18857143 5.06229785,1.71428571 C5.06229785,1.24 4.6845732,0.857142857 4.21881592,0.857142857 L4.21881592,0.857142857 Z M1.68724511,0.857142857 C1.22148784,0.857142857 0.843481929,1.24 0.843481929,1.71428571 C0.843481929,2.18857143 1.22148784,2.57142857 1.68724511,2.57142857 C2.15328365,2.57142857 2.5310083,2.18857143 2.5310083,1.71428571 C2.5310083,1.24 2.15328365,0.857142857 1.68724511,0.857142857 L1.68724511,0.857142857 Z M1,16 C0.534242723,16 0,15.4742857 0,15 L0,0.857142857 C0,0.382857143 0.377724652,0 0.843481929,0 L17.1565181,0 C17.6222753,0 18,0.382857143 18,0.857142857 L18,15 C18,16 17.1427812,16 17,16 L1,16 Z" id="Fill-174"></path>
                </g>
            </g>
        </g>
    </g>
</svg>